<svg width="60" height="60" viewBox="0 0 60 60" fill="none" xmlns="http://www.w3.org/2000/svg">
<g clip-path="url(#clip0_27_468)">
<path d="M57 25.044H37.064L56.032 6.07695C57.201 4.90695 57.201 3.00395 56.032 1.83395C54.862 0.663953 52.96 0.663953 51.79 1.83395L31.405 22.217C30.953 22.108 30.484 22.044 30 22.044C29.516 22.044 29.046 22.108 28.595 22.217L8.211 1.83295C7.041 0.661953 5.138 0.662953 3.968 1.83295C3.403 2.39895 3.092 3.15195 3.092 3.95495C3.092 4.75895 3.404 5.51195 3.968 6.07595L22.936 25.045H3C1.346 25.045 0 26.391 0 28.045C0 29.699 1.346 31.045 3 31.045H3.295L12.305 56.274C12.898 57.931 14.478 59.045 16.238 59.045H43.761C45.521 59.045 47.101 57.932 47.694 56.274L56.704 31.045H57C58.654 31.045 60 29.699 60 28.045C60 26.391 58.654 25.044 57 25.044ZM53.204 3.24695C53.594 2.85695 54.229 2.85795 54.618 3.24695C55.008 3.63695 55.008 4.27195 54.618 4.66195L34.809 24.471C34.408 23.933 33.924 23.46 33.368 23.082L53.204 3.24695ZM31.305 24.281L31.308 24.282C32.349 24.645 33.196 25.415 33.644 26.413L33.709 26.571C33.716 26.588 33.72 26.603 33.726 26.619C33.787 26.779 33.839 26.943 33.879 27.112C33.893 27.169 33.909 27.222 33.922 27.284C33.975 27.552 34 27.8 34 28.044C34 28.294 33.97 28.536 33.926 28.773C33.92 28.808 33.918 28.834 33.911 28.87C33.869 29.065 33.806 29.27 33.712 29.506L33.625 29.71C33.545 29.883 33.457 30.051 33.354 30.209C33.306 30.283 33.252 30.35 33.2 30.42C33.111 30.539 33.019 30.654 32.918 30.762C32.859 30.825 32.8 30.887 32.738 30.946C32.614 31.063 32.481 31.171 32.343 31.272C32.296 31.306 32.253 31.345 32.205 31.377C32.02 31.5 31.823 31.605 31.618 31.696C31.553 31.725 31.485 31.747 31.418 31.773C31.26 31.833 31.098 31.884 30.932 31.924C30.861 31.941 30.789 31.959 30.717 31.972C30.484 32.014 30.246 32.045 30.001 32.045C29.756 32.045 29.518 32.015 29.285 31.972C29.212 31.959 29.141 31.941 29.07 31.924C28.904 31.884 28.742 31.833 28.584 31.773C28.517 31.747 28.449 31.725 28.384 31.696C28.179 31.605 27.982 31.5 27.797 31.377C27.749 31.345 27.706 31.306 27.659 31.272C27.521 31.171 27.388 31.063 27.264 30.946C27.202 30.887 27.142 30.825 27.083 30.762C26.982 30.654 26.89 30.539 26.801 30.421C26.749 30.351 26.694 30.284 26.646 30.21C26.529 30.03 26.425 29.841 26.338 29.643C26.114 29.129 26 28.592 26 28.044C26 27.496 26.114 26.959 26.338 26.446C26.782 25.432 27.639 24.649 28.692 24.282L28.695 24.281C29.106 24.138 29.54 24.044 30 24.044C30.46 24.044 30.893 24.138 31.305 24.281ZM5.092 3.95495C5.092 3.68595 5.196 3.43495 5.383 3.24795C5.773 2.85995 6.408 2.85795 6.798 3.24795L26.633 23.083C26.078 23.461 25.593 23.934 25.192 24.472L5.382 4.66195C5.195 4.47395 5.092 4.22295 5.092 3.95495ZM2 28.044C2 27.492 2.449 27.044 3 27.044H24.084C24.079 27.072 24.081 27.101 24.077 27.129C24.031 27.429 24 27.733 24 28.044C24 28.355 24.031 28.66 24.077 28.959C24.081 28.987 24.079 29.016 24.084 29.044H3C2.449 29.044 2 28.596 2 28.044ZM45.811 55.6C45.502 56.464 44.679 57.044 43.762 57.044H16.238C15.321 57.044 14.497 56.464 14.189 55.601L5.419 31.044H24.809C24.819 31.062 24.833 31.078 24.844 31.096C24.954 31.28 25.072 31.458 25.2 31.629C25.229 31.668 25.258 31.708 25.288 31.746C25.583 32.121 25.922 32.46 26.297 32.755C26.344 32.792 26.393 32.827 26.441 32.863C26.592 32.975 26.747 33.079 26.908 33.176C26.954 33.204 26.998 33.233 27.045 33.259C27.456 33.493 27.897 33.678 28.361 33.811C28.419 33.828 28.478 33.841 28.537 33.856C28.715 33.901 28.896 33.937 29.079 33.966C29.144 33.976 29.208 33.988 29.273 33.996C29.512 34.025 29.754 34.045 30.001 34.045C30.248 34.045 30.49 34.025 30.729 33.996C30.794 33.988 30.858 33.976 30.923 33.966C31.107 33.937 31.287 33.901 31.465 33.856C31.524 33.841 31.583 33.827 31.641 33.811C32.105 33.679 32.546 33.493 32.957 33.259C33.003 33.232 33.048 33.204 33.094 33.176C33.255 33.079 33.411 32.9739 33.561 32.863C33.609 32.827 33.658 32.792 33.705 32.755C34.08 32.46 34.418 32.121 34.714 31.746C34.744 31.708 34.772 31.668 34.802 31.629C34.93 31.458 35.049 31.281 35.158 31.096C35.169 31.078 35.182 31.062 35.193 31.044H54.583L45.811 55.6ZM57 29.044H35.911C35.912 29.036 35.912 29.029 35.913 29.021C35.966 28.703 36 28.378 36 28.044C36 27.713 35.966 27.39 35.914 27.074C35.912 27.064 35.913 27.054 35.911 27.044H57C57.551 27.044 58 27.492 58 28.044C58 28.596 57.551 29.044 57 29.044Z" fill="#DEC2BA"/>
<path d="M11 37.0439C11 37.5969 11.448 38.0439 12 38.0439H48C48.552 38.0439 49 37.5969 49 37.0439C49 36.4909 48.552 36.0439 48 36.0439H12C11.448 36.0439 11 36.4919 11 37.0439Z" fill="#DEC2BA"/>
<path d="M45 41.0439H15C14.448 41.0439 14 41.4909 14 42.0439C14 42.5969 14.448 43.0439 15 43.0439H45C45.552 43.0439 46 42.5969 46 42.0439C46 41.4909 45.552 41.0439 45 41.0439Z" fill="#DEC2BA"/>
<path d="M42 46.0439H18C17.448 46.0439 17 46.4909 17 47.0439C17 47.5969 17.448 48.0439 18 48.0439H42C42.552 48.0439 43 47.5969 43 47.0439C43 46.4909 42.552 46.0439 42 46.0439Z" fill="#DEC2BA"/>
<path d="M40 51.0439H20C19.448 51.0439 19 51.4909 19 52.0439C19 52.5969 19.448 53.0439 20 53.0439H40C40.552 53.0439 41 52.5969 41 52.0439C41 51.4909 40.552 51.0439 40 51.0439Z" fill="#DEC2BA"/>
</g>
<defs>
<clipPath id="clip0_27_468">
<rect width="60" height="60" fill="white"/>
</clipPath>
</defs>
</svg>
