<svg width="36" height="36" viewBox="0 0 36 36" fill="none" xmlns="http://www.w3.org/2000/svg">
<path d="M17.8933 8.78223C12.955 8.78223 8.86328 12.8034 8.86328 17.8122C8.86328 22.821 12.8844 26.8422 17.8933 26.8422C22.9021 26.8422 26.9232 22.7505 26.9232 17.8122C26.9232 12.8739 22.8315 8.78223 17.8933 8.78223ZM17.8933 23.597C14.7187 23.597 12.1084 20.9868 12.1084 17.8122C12.1084 14.6376 14.7187 12.0274 17.8933 12.0274C21.0679 12.0274 23.6781 14.6376 23.6781 17.8122C23.6781 20.9868 21.0679 23.597 17.8933 23.597Z" fill="#DEC2BA"/>
<path d="M27.2763 10.6161C28.4062 10.6161 29.3222 9.70016 29.3222 8.57027C29.3222 7.44037 28.4062 6.52441 27.2763 6.52441C26.1464 6.52441 25.2305 7.44037 25.2305 8.57027C25.2305 9.70016 26.1464 10.6161 27.2763 10.6161Z" fill="#DEC2BA"/>
<path d="M32.5677 3.27913C30.7335 1.37437 28.1233 0.386719 25.1603 0.386719H10.6277C4.49015 0.386719 0.398438 4.47843 0.398438 10.616V25.0781C0.398438 28.1116 1.38609 30.7218 3.3614 32.6266C5.26616 34.4608 7.80584 35.3779 10.6983 35.3779H25.0898C28.1233 35.3779 30.663 34.3902 32.4972 32.6266C34.402 30.7924 35.3896 28.1821 35.3896 25.1486V10.616C35.3896 7.65303 34.402 5.11335 32.5677 3.27913ZM32.2856 25.1486C32.2856 27.3356 31.5095 29.0992 30.2397 30.2985C28.9699 31.4978 27.2062 32.1328 25.0898 32.1328H10.6983C8.58186 32.1328 6.81819 31.4978 5.54835 30.2985C4.27851 29.0287 3.64359 27.265 3.64359 25.0781V10.616C3.64359 8.49959 4.27851 6.73593 5.54835 5.46608C6.74764 4.26679 8.58186 3.63187 10.6983 3.63187H25.2309C27.3473 3.63187 29.111 4.26679 30.3808 5.53663C31.5801 6.80647 32.2856 8.57014 32.2856 10.616V25.1486Z" fill="#DEC2BA"/>
</svg>
